<?xml version="1.0" encoding="UTF-8"?>
<svg id="Layer_1" data-name="Layer 1" xmlns="http://www.w3.org/2000/svg" width="1719.63" height="430.01" viewBox="0 0 1719.63 430.01">
  <defs>
    <style>
      .cls-1 {
        fill: #c5d4e2;
      }

      .cls-2 {
        fill: #00269a;
      }

      .cls-3 {
        fill: #425cc7;
      }
    </style>
  </defs>
  <polygon class="cls-2" points="137.74 379.83 84.13 429.82 191.34 429.82 137.74 379.83"/>
  <rect class="cls-1" x="263.65" y="121.33" width="77.66" height="77.67" transform="translate(-24.66 260.8) rotate(-45)"/>
  <path class="cls-1" d="M247.57,270l54.92-54.92,54.91,54.91-54.92,54.92-54.91-54.91Z"/>
  <path class="cls-1" d="M200.73,426.66l46.84-46.84-54.91-54.91-54.92,54.92,46.83,46.83c4.46,4.46,11.7,4.46,16.16,0Z"/>
  <polygon class="cls-1" points="247.57 379.83 302.48 324.91 192.66 324.91 247.57 379.83"/>
  <polygon class="cls-3" points="247.57 270 192.65 215.08 137.74 269.99 192.65 324.91 302.48 324.91 247.57 270"/>
  <path class="cls-2" d="M357.4,160.17l-54.91,54.91,54.91,54.91,34.57-34.57c2.14-2.14,3.35-5.05,3.35-8.08v-24.52c0-3.03-1.2-5.94-3.35-8.08l-34.57-34.57Z"/>
  <g>
    <path class="cls-1" d="M.01,347.2c0,3.03,1.2,5.94,3.35,8.08l24.55,24.55,46.84,46.84c4.46,4.46,11.7,4.46,16.16,0l46.83-46.83-54.92-54.92H.01S.01,347.2.01,347.2Z"/>
    <path class="cls-2" d="M68.17,200.37l54.91-54.91-40.26-40.21H.01S.01,127.53.01,127.53c0,3.03,1.2,5.94,3.35,8.08l24.55,24.55,40.26,40.21Z"/>
  </g>
  <polygon class="cls-2" points="137.66 50.18 191.27 .19 84.05 .19 137.66 50.18"/>
  <path class="cls-1" d="M302.48,105.25l-54.99-55.07L200.65,3.35c-4.46-4.46-11.7-4.46-16.16,0l-46.83,46.83,54.92,54.92h109.72"/>
  <polygon class="cls-3" points="247.57 271.3 192.66 326.22 302.48 326.22 247.57 271.3"/>
  <path class="cls-2" d="M192.65,105.25l-54.92,54.92-54.91,54.91-54.92,54.92-24.55,24.55c-2.14,2.14-3.35,5.05-3.35,8.08v22.28h82.81s54.92-54.92,54.92-54.92l.43-.43,36.56,36.29c-14.71-42.76.3-70.58,10.52-83.36l7.41-7.41,54.92-54.92,54.91-54.91h-109.83Z"/>
  <g>
    <path class="cls-2" d="M527.48,148.86v27.29h118.78c2.41,0,4.37,1.95,4.37,4.37v43.75c0,2.41-1.95,4.36-4.36,4.36h-118.79v55.62c0,14.91,12.2,27.11,27.11,27.11h179.22c2.41,0,4.36,1.95,4.36,4.36v43.75c0,2.41-1.95,4.36-4.36,4.36h-179.39c-43.86,0-79.41-35.55-79.41-79.41v-135.55c0-43.95,35.63-79.58,79.58-79.58h179.22c2.41,0,4.36,1.95,4.36,4.36v43.76c0,2.41-1.95,4.36-4.36,4.36h-179.22c-14.91,0-27.11,12.2-27.11,27.11Z"/>
    <path class="cls-2" d="M1074.78,73.89v43.79c0,2.41-1.95,4.37-4.37,4.37h-116.56v237.5c0,2.41-1.95,4.37-4.37,4.37h-43.79c-2.41,0-4.37-1.95-4.37-4.37V122.05h-116.56c-2.41,0-4.37-1.95-4.37-4.37v-43.79c0-2.41,1.95-4.37,4.37-4.37h285.65c2.41,0,4.37,1.95,4.37,4.37Z"/>
    <path class="cls-2" d="M1256.65,69.44c81.16,0,147.09,65.76,147.09,147.09,0,36.03-12.94,69.26-34.8,94.8-2.63,3.15-5.43,6.29-8.4,9.27-26.59,26.76-63.32,43.2-103.89,43.2h-127.84c-5.95,0-10.77-4.82-10.77-10.77V80.21c0-5.95,4.82-10.77,10.77-10.77h127.84ZM1170.51,311.34h86.14c52.12,0,94.62-42.5,94.62-94.8s-42.5-94.62-94.62-94.62h-86.14v189.43Z"/>
  </g>
  <path class="cls-2" d="M1719.15,357.34l-25.54-51.64-114.67-231.2c-1.5-3.02-4.57-4.93-7.94-4.93h-20.09c-3.37,0-6.45,1.91-7.94,4.93l-114.67,231.2-25.54,51.64c-1.5,3.03.71,6.57,4.08,6.57h53.26c1.73,0,3.31-.98,4.08-2.52l27.72-55.69,1.52-3.07h135.07l1.52,3.07,27.72,55.69c.77,1.55,2.35,2.52,4.07,2.52h53.26c3.38,0,5.58-3.55,4.08-6.57ZM1519.55,249.86l41.4-83.6,41.4,83.6h-82.81Z"/>
  <path class="cls-1" d="M0,82.87c0-3.42,1.36-6.7,3.78-9.11l24.12-24.12L73.7,3.83c5.03-5.03,13.19-5.03,18.23,0l44.77,44.77c.57.57.57,1.49,0,2.06l-53.36,54.1c-.27.28-.65.43-1.04.43H1.46c-.81,0-1.46-.66-1.46-1.46v-20.86Z"/>
</svg>