<?xml version="1.0" encoding="UTF-8"?><svg id="b" xmlns="http://www.w3.org/2000/svg" width="240" height="75.42" xmlns:xlink="http://www.w3.org/1999/xlink" viewBox="0 0 240 75.42"><defs><style>.f{fill:#a3b8dc;}.g{fill-rule:evenodd;}.g,.h{fill:#00385a;}.i{fill:url(#e);}.j{fill:url(#d);}.k{fill:#6da124;}</style><linearGradient id="d" x1="1.11" y1="41.3" x2="95.75" y2="41.3" gradientUnits="userSpaceOnUse"><stop offset="0" stop-color="#6fa224"/><stop offset=".35" stop-color="#6fa224"/><stop offset=".49" stop-color="#6fa224"/><stop offset=".49" stop-color="#6ea124"/><stop offset=".56" stop-color="#477c37"/><stop offset=".63" stop-color="#285e46"/><stop offset=".7" stop-color="#114951"/><stop offset=".76" stop-color="#043c57"/><stop offset=".82" stop-color="#00385a"/><stop offset="1" stop-color="#00385a"/></linearGradient><radialGradient id="e" cx="-566.1" cy="387.68" fx="-566.1" fy="387.68" r="2.03" gradientTransform="translate(3743.89 1.47) rotate(34.2) scale(5.29)" gradientUnits="userSpaceOnUse"><stop offset="0" stop-color="#fff"/><stop offset=".35" stop-color="#c0cfe7"/><stop offset=".54" stop-color="#a3b8dc"/><stop offset="1" stop-color="#a3b8dc"/></radialGradient></defs><g id="c"><path class="g" d="m239.86,72.47c.71,1.99-1.47.97-2.03,1.59-4.75-.45-5.54-.43-6.45-4.37-.25-3.89-.33-5.64-.6-11.27-2.08-.41-4.86.09-7.19-.35-3.22,4.48-4.62,9.56-8.1,13.82-1.81,1.46-3.36,1.81-5.88,1.41-1.43-.32,1.68-7.9,4.02-11.53,2.48-3.83,4.24-7.62,6.19-11.96,1.62-3.33,3.39-5.27,4.71-7.58.97-1.7,1.68-3.64,3.43-4.68,1.96-1.17,4.47-.7,6.31.51.97.64,2,1.58,2.64,2.58.98,1.51,1.27,4.15,1.49,6.81.6,7.1.58,16.81.64,22.34.19,1.57.7,1.56.81,2.7m-13.49-19.41c1.78-.07,2.65.38,4.78.26.16-1.74.57-2.5.41-3.23.33-3.43-1.38-4.96-1.39-3.74-1.64.29-2.58,4.43-3.8,6.71"/><path class="g" d="m188.01,43.19c-7.47.48-13.45-1.89-17.1,6.26-1.57,3.5-4.1,8.31-5.92,12.67-.74,1.77-2.41,4.95-4.45,7.35-2.1,2.46-1.02,6.71-5.19,5.37-2.5-2.49-.01-5.06,1.06-8.29,1.36-4.09,2.55-7.54,4-11.76.33-.97.9-1.87,1.26-2.84.92-2.48,1.42-5.17,2.46-7.29-3.15-.49-8.68,1.07-12.1,1-2.38-2.11-.15-4.77.95-6.54,7.63-.36,15.2-1.63,24.9-1.68,1.8-.01,9.31.48,11.17.26,16.1-1.86,21.61-.29,24.21,8.36,1.51,7.79-2.94,12.56-7.45,16.67-2.51,2.28-4.28,2.99-7.8,4.87-1.39.74-2.84,1.99-4.26,2.59-1.08.45-2.49.4-3.66.8-3.13,1.04-11.65,5.38-12.65.29-.58-2.96,3.41-8.81,4.31-11.04,2.36-5.83,4.94-11.88,6.27-17.05m6.42.35c-.63,1.29-1.21,3.48-1.46,4.87-.14.76-.26,1.55-.53,2.28-.27.71-.8,1.16-1.12,1.83-.41.88-.36,2.05-.66,3-.33,1.05-.79,2.05-1.27,3.04-.99,2.04-2.02,4.87-2.56,7.08.08-.32,3.99-2,4.49-2.17,1.33-.45,2.64-.97,3.89-1.59,2.64-1.31,4.86-3.11,7-5.11,2.31-2.17,4.22-4.5,4.36-7.79.07-1.52-.06-2.27-.33-3.68-.58-3-8.45-2.9-11.83-1.75"/><path class="g" d="m148.48,37.26c1.94,2.32-.93,3.11-2.79,3.91-1.78.78-3.91.32-6.2.76-4.51.87-10.62,2.97-11.11,5.18,4.92,1.66,10.9-.19,16.16,1.43.64.97,1.72,1.44,2.9,1.76,1.19,2.09,1.69,2.03.95,5.44-.11,2.73-1.84,4.49-2.97,6.51-1.99.98-3.52,4.28-5.57,5.48-2.18,1.27-7.14,3.49-10.88,4.91-4.04,1.53-12.49,2.3-15.73.79-1.01-.47-3.59-2.52-4.04-3.43-.82-1.66.28-2.9-.6-4.21.55-.69,1.14-2.07,2.12-1.68,1.51.88,1.21,3.05,9.86,3.36,11.73-1.9,19.92-6.71,18.71-11.46-2.24-5.21-17.37.55-19.42-5.68-.89-2.7,1.05-3.47.54-5.56,4.8-6.01,16.32-10.23,25.86-8.65.98.14-1.3,1.21,2.21,1.15"/><path class="g" d="m114.77,37.29c.33,1.51-1.78,3.51-2.43,4.61-1.68,2.84-3.26,5.76-4.77,8.7-3.02,5.89-5.79,11.91-8.39,18-1.63.75-1.77,2.76-3.62,3.33-.78,1.07-1.05,2.57-3.02,2.63-1.21-3.05,1.26-6.19.92-9.8,2.41-4.62,4.02-9.6,5.79-14.48.89-2.46,1.81-4.91,2.9-7.28.43-.93,1.44-2.2,1.59-3.18.09-.58-.51-1.29-.32-1.84.18-.51.65-.63,1.09-.82,1.57-.67,3.26-.29,4.91-.41,1.41-.11,4.28-1.55,5.21.18.07.12.11.25.14.38"/><path class="h" d="m91.67,31.08c-.18,0-.36,0-.54,0-.48.81-1.52,1.66-1.94,2.55.11.05.23.08.33.13-.15.1-.32.18-.48.29-.45,2.03-8.7,9.53-9.59,10.5-.89.98-3.43,3.49-3.43,3.49,0,0-2.4,1.63-4.8,3.11-5.53,3.92-10.59,8.43-17.54,11.25-1,.41-2.58.88-3.8,1.14-3.37.73-7.41,2.23-10.89,1.55-2.82-.55-6.61-2.92-7.6-7.23-1.57-.53,0-1.73.45-2.34.45-.61-.55-1.45,0-3.61.55-2.16,1.6-3.82,1.6-3.82,0,0,.08-.11.22-.31.76-1.09.78-2.56,1.21-3.77.5-1.4,1.35-1.9,2.33-2.96.8-.86.78-2.02,1.24-3.03.65-1.42,1.82-2.65,2.82-3.85,1-1.2,2.53-1.86,3.42-3.1,1.07-1.5,3.27-2.81,3.57-4.69.9-.1,2.68-2.47,2.68-2.47.96-1.73,2.46-2.95,4.19-4.09,2.47-1.62,3.93-3.51,6.77-4.93,2.14-1.06,4.19-2.76,6.56-4.24,4.32-1.36,7.27-3.64,11.61-4.07,1.47-.15,1.5-.68,2.96-.97,1.46-.3,2.64-.24,3.98-.94,1.21-.63,2.33-.9,3.72-.81.58.04,1.24.3,1.83.19.74-.14.51-.95,1.11-.79,2.63.67,2.14-.9,2.12-.38.07-1.37-1.32-1.08-1.88-1.73C87.97-.12,88.93,0,83.36,0c-5.77,0-7.62,2.4-12.31,3.41-.97.21-6.44,1.26-7.22,1.84-.95.7-1.85,1.47-2.81,2.16-2.71,1.94-5.06,2.41-7.95,4.05-.91.52-5,3.12-6.06,5.24-.05-.08-.12-.13-.21-.17-.54.39-.83,1.07-1.32,1.52-.5.46-1.86.51-1.72,1.13.3,1.35-1.61,1.31-2.24,2.02-.39.44-.61.96-1.05,1.39-.42.41-.95.74-1.33,1.2-.29.36-.46,1.49-.69,1.67-2.47,2.01-4.5,4.37-5.88,7.28.04.83-.38,1.7-1.72,2.84-1.67,1.41-1.86,3.21-1.86,3.21,0,0-1.01.32-1.63,1.01-.08.11-.77.91-.85,1.03-.32.55-.76,1.6-1.2,2.66-.37,1.03-.72,2.08-1.24,3.02-.47.95-.14,2.91-.92,3.86-.78.95-.89,1.86-1.01,3.05-.11,1.19-.46,3.78-.46,3.78.1.75-.06,1.41-.51,1.72.37,2.28,3.47,4.28,3.61,6.84.96,1.42,2.64,2,3.73,3.26,3.58.71,4.58,3.73,8.29,4.13,1.2.13,3.92.02,5.25.02,1.98,0,5.6-.57,8.11-1.27,1.07-.3,2.02-1.04,3.13-1.29,1.95-.45,3.48-.21,4.89-1.02,4.43-2.53,9.46-4.97,12.73-7.93-.11-1.05.63-1.42,1.6-1.59-.39,1.55-1.32,2.31-1.88,3.29-.7,1.21-.96,3.23-1.96,4.97-1.58,2.74-2.76,4.26-2.21,7.09,2.23-.3,2.81-1.96,4.07-3.05.32.39.66.76,1.56.5,1.09-1.88,2.65-3.37,3.19-5.7,2.89-1.89,3.33-5.78,6.04-7.81,1.04-6.88,4.5-6.76,5.77-10.94.98-.82,2.33-1.89,2.35-2.91.75-.16.68-.99,1.65-.97.65-1.86,1.26-3.74,3.53-4.26.81-1.98,2.27-3.43,2.3-6.05,0-1.81-1.54-2.72-5.24-3.14"/><path class="j" d="m67.66,27.86c.71.27,5.37.41,5.76.45,3.27.28,13.36.99,14.11,4.52.85,4-14.85,9.06-37.25,12.91-22.41,3.86-40.31,4.02-41.17.01-.63-2.97,7.91-7.52,21.99-11.1.42-.47,1.17-.5,1.11-2.08-.01-.32.36-.66.04-.59C12.95,36.93-1.09,43.85.07,49.31c1.42,6.67,25.58,8.38,51.71,3.88,26.14-4.5,46.61-13.2,45.2-19.86-.44-2.08-2.09-3.41-3.99-4.2-4.05-1.68-9.66-2.24-14.15-2.24h-.14c-2.14,0-3.5.03-5.66.17-.91.06-6.29.45-5.36.8Z"/><path class="k" d="m44.96,31.4c6.93-1.61,9.31-1.77,14.86-2.82,0,0,3.02-1.21-12.28.01-.35.49-1.59,1.54-2.57,2.81"/><path class="h" d="m125.34,20.96c0,4.99-4.05,9.04-9.04,9.04s-9.04-4.05-9.04-9.04,4.05-9.04,9.04-9.04,9.04,4.04,9.04,9.04"/><path class="f" d="m115.57,21.87s.16.02.28.15c.12.12.24.24.31.3.07.05.23.22.27.26.04.04.15.15.19.2.04.05.13.24.15.29.01.06.03.13.03.13v.17s.02.11.02.11c0,0,.12.05.19.05s.53-.17.62-.01c.1.16.06.22.11.24.05.03.05.11.05.11l-.34.08s-.46,0-.52-.04c-.05-.04,0-.16-.3-.3-.3-.14-.39-.3-.43-.41-.04-.11-.28-.4-.31-.57-.02-.16-.35-.36-.36-.45-.01-.08-.07-.31-.07-.31h.11Z"/><path class="f" d="m117.94,23.24s-.36.07-.46-.01c-.09-.08-.2-.27-.28-.35-.08-.08-.07-.4.08-.47.15-.07.38-.27.47-.42.1-.15.42-.35.47-.35s.19.14.14.21c-.05.08-.22.34-.2.41.01.07.09.11.09.24s-.08.17-.13.27c-.05.1-.05.27-.07.31-.01.04-.11.16-.11.16"/><path class="f" d="m109.45,26.03c.19.04.66-.32.64-.47-.03-.21-.03-.45.04-.5.07-.05.2-.44.14-.53-.05-.09-.13-.22-.21-.21-.08.01-.49.28-.5.36-.01.08-.15.5-.2.61-.04.11-.13.3-.1.38.02.08.12.31.12.31.01.03.04.05.07.06"/><path class="f" d="m118.29,19.94s-.13.21-.1.32c.03.11.15.35.21.37.06.02.14.07.14.1,0,.03.09.04.06.19-.03.15-.04.29-.02.36.02.06.08.23.17.3.09.06.07.16.16.17.09.01.32,0,.34-.05.02-.05-.11-.31-.11-.34,0-.03-.06-.09-.13-.11-.07-.02-.24-.09-.26-.15-.02-.06.02-.07.02-.2s-.1-.13-.02-.25c.08-.12.13-.21.07-.27s-.03-.13-.07-.13-.15.09-.16-.07v-.16s-.05-.06-.05-.06c0,0-.04-.17-.14-.13-.1.04-.1.12-.1.12"/><path class="f" d="m118.95,22.46s-.05.11-.11.11-.31-.09-.39.04c-.08.13-.13.33-.14.38,0,.06-.09.11-.06.2.02.09.16.21.14.31-.03.09.02.14.09.1.07-.04.08-.2.11-.21.03-.02.03.03.1.03.08,0,.19.1.19-.03s-.05-.32-.01-.37c.05-.04.2-.1.08-.18-.12-.09-.31-.13-.18-.14.13-.01.21-.04.25-.07.04-.03.11-.08.1-.14,0-.07.01-.09-.04-.09s-.12.07-.12.07"/><path class="f" d="m119.73,22.95c.1.07.11.26.14.34.03.07.02.15.34.3.32.16.36.09.44.34.07.25.11.38.26.36.15-.02.08-.33.34-.24.26.09.37.13.46.23.09.1.19.15.23.12.04-.04.14-.1.06-.16-.07-.07-.19-.12-.28-.26-.09-.14-.02-.16-.1-.28-.08-.12-.23-.29-.4-.44-.17-.15-.3-.23-.42-.25-.12-.02-.2-.06-.3-.03-.09.04-.21.07-.28.02-.07-.05-.21-.17-.27-.2-.06-.04-.25-.18-.31-.05-.06.13.07.2.07.2"/><path class="f" d="m118.25,23.96s.12.21.34.13c.22-.07.29-.06.19-.16-.1-.1-.22-.13-.25-.1-.03.02-.12.05-.15.05-.03,0-.12.07-.12.07"/><path class="f" d="m120.21,24.51s-.46-.03-.65.12c-.19.15-.16.28-.32.33s-.37.15-.47.23c-.11.07-.54.36-.66.47-.13.12-.4.13-.55.21-.14.08-.21.25-.22.28-.02.03-.13.32-.12.62.02.3.02.68-.03.74-.05.07-.15.21-.08.29.08.08.13.08.26.14.13.07.18.17.4.04.21-.13.55-.15.66-.25.12-.1.48-.1.57-.07.1.04.33.12.4.33.08.22.2.02.27.23.07.22-.22.32.16.47.38.14.9,0,.95-.09.05-.09.25-.46.43-.57.18-.11.5-.52.47-.81-.04-.29-.07-1.24-.16-1.34-.09-.11-.2-.39-.23-.52-.04-.13,0-.38-.09-.45-.09-.07-.11-.27-.11-.32s-.05-.27-.15-.14c-.09.13-.1.25-.1.41s-.04.39-.13.45c-.09.05-.12.25-.2.18-.07-.07-.39-.38-.34-.43.05-.06.19-.22.19-.33s-.16-.22-.16-.22"/><path class="i" d="m116.47,21.85c-.11-.07-.39-.27-.39-.37s-.07-.55.01-.58c.09-.03.3.17.34.21.04.04.15.24.2.26.04.01.2-.12.3-.18.1-.07.22-.48.12-.68-.1-.2-.42-.55-.42-.55,0,0-.07-.21.13-.25.2-.04.68-.16.91-.4.24-.24.42-.61.42-.75s-.15-.62-.21-.72c-.06-.1-.32-.39-.26-.51.07-.11.36-.28.22-.34-.14-.05-.44,0-.45-.07-.01-.07.04-.2.1-.2.06,0,.07.13.2.1.13-.03.27-.1.34.03.07.13.17.37.25.37s.13.23.24.21c.11-.02.16-.11.2-.04.04.07,0,.17.08.23.09.06.13.2.21.17.09-.03.15-.11.15-.2s-.04-.14.06-.14.4-.04.41-.13c.02-.09.13-.46.13-.62v-.45s-.3-.16-.09-.25c.22-.09.43-.14.16-.25-.27-.1-.45-.22-.45-.22l-.14.38s.07.2.18.26c.11.08.09.34.05.39-.03.06-.09.25-.14.31-.05.05-.27.28-.27.28,0,0-.08.11-.16.13-.09.02-.2.09-.21,0-.02-.09.07-.3-.02-.36-.09-.05-.32-.16-.34-.22-.02-.05.04-.36.07-.43.03-.07.34-.11.36-.25.02-.14-.05-.61-.02-.7.04-.09,0-.41-.09-.53-.09-.12-.34-.45-.43-.47-.09-.02-.38,0-.31-.34.07-.34.41-.49.88-.47.47.02.34-.47.33-.57,0-.06.05,0,.13.05.06.04.13.09.16.08.07-.04.12-.45.16-.31.03.14.22.82.22.99s.36.7.54.52c.18-.18.16-.47.05-.58-.11-.11-.28-.16-.27-.36.02-.2.04-.34.13-.36.06-.01.13-.05.18-.07-1.23-.63-2.63-.99-4.11-.99-4.99,0-9.04,4.04-9.04,9.04,0,1.57.4,3.04,1.1,4.33.16-.05.71-.25.75-.52.03-.33-.32-.75-.25-1.15.07-.39.47-.93.65-1.11.18-.18.72-.64.65-.86-.07-.22.07-.43.07-.43h-.61c-.22,0-.54-.32-.54-.32,0,0-.22-.39-.36-.64-.14-.25-.14-.76-.32-.83-.18-.07-.36-.46-.36-.46l.09-.13s.52.42.55.65c.03.24.18.42.29.58.1.15.24.63.24.63l.21.31s.32-.11.5-.21c.18-.1.55-.16.6-.31.05-.16.34-.24.47-.52,0,0,.17-.05.16-.19-.01-.14-.23-.48-.31-.54-.09-.05-.24-.07-.26-.03-.03.04-.12.15-.16.14-.04-.01-.14-.03-.14-.1s-.1-.14-.17-.17c-.07-.03-.21-.03-.21-.17s.09-.25.13-.25c.04,0,.31.24.32.3.01.06.23.17.37.15.14-.01.15.01.27.07.11.05.48.13.64.11.15-.01.52.11.56.21.04.1.16.34.25.32.1-.01.24.04.23.1-.01.05-.1.42-.01.48.09.05.21.13.25.31.04.18.02.38.13.45.11.07.07.22.13.27.06.04.06.14.17.1.11-.04.37-.1.4-.33.03-.22.04-.65.11-.69.07-.04.34-.28.37-.39.03-.11.13-.23.16-.35.03-.13.23-.31.37-.27.14.04.38.29.39.42.02.13-.04.37.12.45.15.08.38.01.42.13s.06.35.17.44c.11.09.15.52.13.64-.03.11.13.33.18.52.06.2.29.3.34.3s.13-.47.01-.53Z"/></g></svg>