<?xml version="1.0" encoding="UTF-8" standalone="no"?>
<!-- Created with Inkscape (http://www.inkscape.org/) -->

<svg
   width="1050"
   height="310.638"
   viewBox="0 0 277.81249 82.189637"
   version="1.1"
   id="svg1806"
   inkscape:version="1.2 (dc2aedaf03, 2022-05-15)"
   sodipodi:docname="drawing.svg"
   xmlns:inkscape="http://www.inkscape.org/namespaces/inkscape"
   xmlns:sodipodi="http://sodipodi.sourceforge.net/DTD/sodipodi-0.dtd"
   xmlns="http://www.w3.org/2000/svg"
   xmlns:svg="http://www.w3.org/2000/svg">
  <sodipodi:namedview
     id="namedview1808"
     pagecolor="#ffffff"
     bordercolor="#111111"
     borderopacity="1"
     inkscape:showpageshadow="0"
     inkscape:pageopacity="0"
     inkscape:pagecheckerboard="1"
     inkscape:deskcolor="#d1d1d1"
     inkscape:document-units="mm"
     showgrid="false"
     inkscape:zoom="0.46057099"
     inkscape:cx="330.02513"
     inkscape:cy="212.77936"
     inkscape:window-width="1366"
     inkscape:window-height="697"
     inkscape:window-x="-8"
     inkscape:window-y="-8"
     inkscape:window-maximized="1"
     inkscape:current-layer="layer1" />
  <defs
     id="defs1803" />
  <g
     inkscape:label="Layer 1"
     inkscape:groupmode="layer"
     id="layer1">
    <g
       id="g2352"
       transform="matrix(0.82785774,0,0,0.82785774,-498.54421,-700.70707)"
       style="fill:#e74011;fill-opacity:1">
		<g
   id="g2310"
   style="fill:#e74011;fill-opacity:1">
			<g
   id="g2210"
   style="fill:#e74011;fill-opacity:1">
				<path
   class="st17"
   d="m 695.5,901.8 h 1.7 v 5.7 c 0.6,0.6 1.4,1.3 2.2,1.3 0.8,0 1.1,-0.5 1.1,-1.2 v -5.8 h 1.7 v 5.8 c 0,1.8 -1,2.8 -2.4,2.8 -1.2,0 -1.8,-0.4 -2.6,-1.2 l -0.1,1.1 h -1.6 z"
   id="path2136"
   style="fill:#e74011;fill-opacity:1" />

				<path
   class="st17"
   d="m 708,904.2 c 0.1,0 0.2,0 0.4,0 0.1,-0.1 0.2,-0.3 0.2,-0.5 l 0.5,-1.9 h 1.7 l -0.5,1.9 c -0.1,0.4 -0.2,0.7 -0.4,0.9 0.7,0.4 1.2,1.1 1.2,2.2 v 3.5 h -1.7 v -3.4 c 0,-0.9 -0.7,-1.1 -1.6,-1.1 -0.6,0 -1.3,0.1 -1.7,0.2 v 4.3 h -1.7 v -8.5 h 1.7 v 2.6 c 0.7,-0.1 1.3,-0.2 1.9,-0.2"
   id="path2138"
   style="fill:#e74011;fill-opacity:1" />

				<path
   class="st17"
   d="m 715.3,910.3 v -5.7 c 0,-1 -0.7,-1.3 -1.6,-1.3 -0.5,0 -1,0.1 -1.4,0.2 V 902 c 0.5,-0.2 1,-0.3 1.6,-0.3 1.5,0 3.1,0.7 3.1,2.8 v 5.8 z"
   id="path2140"
   style="fill:#e74011;fill-opacity:1" />

				<path
   class="st17"
   d="m 718.4,902.2 c 0.7,-0.3 1.6,-0.5 2.5,-0.5 1.7,0 3.2,0.8 3.2,3 v 2.7 c 0,1.9 -1.1,2.8 -3.1,2.8 h -1.5 v -1.6 h 1.4 c 0.9,0 1.4,-0.3 1.4,-1.3 v -2.6 c 0,-1.2 -0.7,-1.5 -1.5,-1.5 -0.8,0 -1.7,0.3 -2.2,0.5 z"
   id="path2142"
   style="fill:#e74011;fill-opacity:1" />

				<polygon
   class="st17"
   points="718.6,898.6 718.2,900.1 724.5,900.1 724.5,898.6 "
   id="polygon2144"
   style="fill:#e74011;fill-opacity:1" />

				<path
   class="st17"
   d="m 732.8,910.3 h -1.7 v -6.1 c 0,-0.6 -0.4,-0.9 -0.9,-0.9 -1,0 -1.8,1 -2.4,2 v 4.9 h -1.7 v -8.5 h 1.7 v 1.6 c 0.6,-1.1 1.4,-1.8 2.6,-1.8 1.4,0 2.4,0.8 2.4,2.5 z"
   id="path2146"
   style="fill:#e74011;fill-opacity:1" />

				<path
   class="st17"
   d="m 739.9,901.8 h 1.7 v 5.9 c 0,1.9 -1.4,2.7 -3.5,2.7 -1.2,0 -2.5,-0.3 -3.4,-0.8 v -2 c 0,-0.9 0.2,-1.5 0.9,-1.9 -0.6,-0.2 -0.9,-0.7 -0.9,-1.4 v -0.4 c 0,-1.2 0.5,-2.1 2,-2.1 h 1.6 v 1.6 H 737 c -0.4,0 -0.5,0.3 -0.5,0.6 v 0.2 c 0,0.5 0.2,0.7 0.5,0.7 h 1.6 v 1.6 h -1.3 c -0.6,0 -0.8,0.3 -0.8,1 v 1.1 c 0.5,0.1 1.1,0.2 1.7,0.2 0.9,0 1.8,-0.3 1.8,-1.2 v -5.8 z"
   id="path2148"
   style="fill:#e74011;fill-opacity:1" />

				<path
   class="st17"
   d="m 746.5,910.3 v -5.7 c 0,-1 -0.7,-1.3 -1.6,-1.3 -0.5,0 -1,0.1 -1.4,0.2 V 902 c 0.5,-0.2 1.1,-0.3 1.6,-0.3 1.5,0 3.1,0.7 3.1,2.8 v 5.8 z"
   id="path2150"
   style="fill:#e74011;fill-opacity:1" />

				<path
   class="st17"
   d="m 754.6,910.3 v -3.4 c -0.4,-0.1 -1,-0.2 -1.6,-0.2 -0.8,0 -1.7,0.2 -1.7,1.1 0,0.8 0.5,1.1 1.1,1.1 0.4,0 0.9,-0.1 1.3,-0.3 v 1.6 c -0.5,0.2 -1,0.3 -1.5,0.3 -1.5,0 -2.6,-0.8 -2.6,-2.7 0,-2 1.5,-2.7 3.2,-2.7 0.6,0 1.2,0.1 1.8,0.2 v -0.7 c 0,-1 -0.7,-1.2 -1.6,-1.2 -0.9,0 -2,0.3 -2.6,0.6 l -0.2,-1.6 c 0.8,-0.3 1.9,-0.6 2.8,-0.6 1.8,0 3.3,0.7 3.3,2.8 v 5.8 h -1.7 z"
   id="path2152"
   style="fill:#e74011;fill-opacity:1" />

				<path
   class="st17"
   d="m 753.9,898.1 c 0,0.3 0.1,0.4 0.4,0.4 h 3.1 v 1.6 h -3.5 c -1.1,0 -1.7,-0.5 -1.7,-1.6 v -1.1 h 1.7 z"
   id="path2154"
   style="fill:#e74011;fill-opacity:1" />

				<path
   class="st17"
   d="m 763.4,901.8 h 1.7 v 5.9 c 0,1.9 -1.4,2.7 -3.5,2.7 -1.2,0 -2.5,-0.3 -3.4,-0.8 v -2 c 0,-0.9 0.2,-1.5 0.9,-1.9 -0.6,-0.2 -0.9,-0.7 -0.9,-1.4 v -0.4 c 0,-1.2 0.5,-2.1 2,-2.1 h 1.6 v 1.6 h -1.4 c -0.4,0 -0.5,0.3 -0.5,0.6 v 0.2 c 0,0.5 0.2,0.7 0.5,0.7 h 1.6 v 1.6 h -1.3 c -0.6,0 -0.8,0.3 -0.8,1 v 1.1 c 0.5,0.1 1.1,0.2 1.7,0.2 0.9,0 1.8,-0.3 1.8,-1.2 z"
   id="path2156"
   style="fill:#e74011;fill-opacity:1" />

				<path
   class="st17"
   d="m 769.6,910.3 h -0.5 c -1.4,0 -1.9,-0.5 -1.9,-1.8 v -6.7 h 1.7 v 6.5 c 0,0.2 0.1,0.3 0.3,0.3 h 0.4 z"
   id="path2158"
   style="fill:#e74011;fill-opacity:1" />

				<path
   class="st17"
   d="m 778.1,910.3 h -1.7 v -6.1 c 0,-0.6 -0.4,-0.9 -0.9,-0.9 -1,0 -1.8,1 -2.4,2 v 4.9 h -1.7 v -8.5 h 1.7 v 1.6 c 0.6,-1.1 1.4,-1.8 2.6,-1.8 1.4,0 2.4,0.8 2.4,2.5 z"
   id="path2160"
   style="fill:#e74011;fill-opacity:1" />

				<path
   class="st17"
   d="m 780.7,907.2 c -0.5,-0.5 -0.8,-1.2 -0.8,-2.1 v -0.5 c 0,-1.9 1.8,-2.9 3.5,-2.9 1.8,0 3.5,1 3.5,3 v 5.6 h -1.7 v -5.5 c 0,-1 -0.9,-1.5 -1.8,-1.5 -0.9,0 -1.8,0.5 -1.8,1.5 0,0.3 0,0.5 0.1,0.8 0.3,-0.2 0.7,-0.2 1.2,-0.2 h 1.2 V 907 H 783 c -0.4,0 -0.6,0.2 -0.7,0.6 l -0.5,2.7 H 780 Z"
   id="path2162"
   style="fill:#e74011;fill-opacity:1" />

				<path
   class="st17"
   d="m 793.3,897.5 h -1.9 c -1,0 -1.3,0.4 -1.3,1.3 v 0.3 c 0,1 1,1.8 1,3.8 v 5.5 c 0,0.2 0.1,0.3 0.3,0.3 h 0.4 v 1.6 h -0.5 c -1.4,0 -1.9,-0.5 -1.9,-1.8 v -5.4 c 0,-1.6 -1,-2.8 -1,-4 v -0.3 c 0,-1.7 0.7,-2.9 2.8,-2.9 h 2.1 z"
   id="path2164"
   style="fill:#e74011;fill-opacity:1" />

				<path
   class="st17"
   d="m 799.9,910.3 h -1.6 l -0.1,-1 c -0.7,0.6 -1.5,1.1 -2.5,1.1 -1.4,0 -2.5,-0.8 -2.5,-2.6 v -6 h 1.7 v 5.9 c 0,0.7 0.3,1.1 0.9,1.1 0.8,0 1.6,-0.4 2.4,-1.1 v -5.9 h 1.7 z"
   id="path2166"
   style="fill:#e74011;fill-opacity:1" />

				<path
   class="st17"
   d="m 806.3,897.5 h -1.9 c -1,0 -1.3,0.4 -1.3,1.3 v 0.3 c 0,1 1,1.8 1,3.8 v 5.5 c 0,0.2 0.1,0.3 0.3,0.3 h 0.4 v 1.6 h -0.5 c -1.4,0 -1.9,-0.5 -1.9,-1.8 v -5.4 c 0,-1.6 -1,-2.8 -1,-4 v -0.3 c 0,-1.7 0.7,-2.9 2.8,-2.9 h 2.1 z"
   id="path2168"
   style="fill:#e74011;fill-opacity:1" />

				<path
   class="st17"
   d="m 810.9,910.3 v -3.4 c -0.4,-0.1 -1,-0.2 -1.6,-0.2 -0.8,0 -1.7,0.2 -1.7,1.1 0,0.8 0.5,1.1 1.1,1.1 0.4,0 0.9,-0.1 1.3,-0.3 v 1.6 c -0.5,0.2 -1,0.3 -1.5,0.3 -1.5,0 -2.6,-0.8 -2.6,-2.7 0,-2 1.5,-2.7 3.2,-2.7 0.6,0 1.2,0.1 1.8,0.2 v -0.7 c 0,-1 -0.7,-1.2 -1.6,-1.2 -0.9,0 -2,0.3 -2.6,0.6 l -0.2,-1.6 c 0.8,-0.3 1.9,-0.6 2.8,-0.6 1.8,0 3.3,0.7 3.3,2.8 v 5.8 h -1.7 z"
   id="path2170"
   style="fill:#e74011;fill-opacity:1" />

				<path
   class="st17"
   d="m 819.7,901.8 h 1.7 v 5.9 c 0,1.9 -1.4,2.7 -3.5,2.7 -1.2,0 -2.5,-0.3 -3.4,-0.8 v -2 c 0,-0.9 0.2,-1.5 0.9,-1.9 -0.6,-0.2 -0.9,-0.7 -0.9,-1.4 v -0.4 c 0,-1.2 0.5,-2.1 2,-2.1 h 1.6 v 1.6 h -1.4 c -0.4,0 -0.5,0.3 -0.5,0.6 v 0.2 c 0,0.5 0.2,0.7 0.5,0.7 h 1.6 v 1.6 H 817 c -0.6,0 -0.8,0.3 -0.8,1 v 1.1 c 0.5,0.1 1.1,0.2 1.7,0.2 0.9,0 1.8,-0.3 1.8,-1.2 z"
   id="path2172"
   style="fill:#e74011;fill-opacity:1" />

				<polygon
   class="st17"
   points="821.4,900.1 821.4,897.6 819.9,897.6 819.7,898.6 815.6,898.6 815.2,900.1 "
   id="polygon2174"
   style="fill:#e74011;fill-opacity:1" />

				<path
   class="st17"
   d="m 827.5,906 -1.4,3.7 c -0.2,0.6 -0.6,0.7 -1.4,0.7 h -0.9 l -0.5,-8.5 h 1.7 l 0.2,3.2 v 2.3 l 1.4,-3.6 h 1.7 l 1.4,3.6 V 905 l 0.2,-3.2 h 1.7 l -0.5,8.5 h -0.9 c -0.7,0 -1.1,-0.1 -1.4,-0.7 z"
   id="path2176"
   style="fill:#e74011;fill-opacity:1" />

				<path
   class="st17"
   d="m 833.5,908.4 c 0.5,0.2 1.6,0.4 2.6,0.4 0.8,0 1.5,-0.2 1.5,-1 0,-1.4 -4.3,-1.1 -4.3,-3.8 0,-1.7 1.4,-2.3 3.1,-2.3 1,0 2,0.2 2.7,0.4 l -0.2,1.5 c -0.5,-0.1 -1.5,-0.4 -2.5,-0.4 -0.7,0 -1.4,0.2 -1.4,0.7 0,1.4 4.3,1 4.3,3.8 0,1.9 -1.4,2.6 -3.2,2.6 -1,0 -2,-0.2 -2.8,-0.4 z"
   id="path2178"
   style="fill:#e74011;fill-opacity:1" />

				<path
   class="st17"
   d="m 842.5,907.7 c 0,0.3 0.1,0.4 0.4,0.4 h 1.9 v 1.6 h -2.3 c -1.1,0 -1.7,-0.5 -1.7,-1.6 v -0.9 h 1.7 z m 0,-4.7 c 0,0.3 0.1,0.4 0.4,0.4 h 1.9 v 1.6 h -2.3 c -1.1,0 -1.7,-0.5 -1.7,-1.6 v -0.9 h 1.7 z"
   id="path2180"
   style="fill:#e74011;fill-opacity:1" />

				<path
   class="st17"
   d="m 846.2,902.3 c 0.9,-0.3 1.8,-0.6 2.9,-0.6 1.8,0 3.5,0.7 3.5,2.8 0,0.7 -0.1,1.2 -0.3,1.8 l -0.6,2.3 c -0.4,1.3 -1.3,1.7 -2.5,1.7 -0.5,0 -1.1,-0.1 -1.7,-0.3 l -0.3,-2.5 c 0,-0.3 -0.1,-0.4 -0.4,-0.4 h -0.4 v -1.6 h 0.6 c 1.2,0 1.7,0.5 1.9,1.7 l 0.2,1.5 h 0.3 c 0.4,0 0.6,-0.1 0.7,-0.5 l 0.6,-2.1 c 0.2,-0.6 0.3,-1.1 0.3,-1.6 0,-1 -0.9,-1.3 -1.9,-1.3 -0.9,0 -2,0.3 -2.6,0.5 z"
   id="path2182"
   style="fill:#e74011;fill-opacity:1" />

				<path
   class="st17"
   d="m 858,906.8 h -1.4 c -0.4,0 -0.5,0.2 -0.5,0.6 v 1.2 c 0.4,0.1 1.1,0.3 1.8,0.3 0.9,0 1.7,-0.3 1.7,-1.2 v -2.9 c 0,-1 -0.8,-1.3 -1.7,-1.3 -1.1,0 -2.4,0.4 -3,0.7 l -0.3,-1.5 c 1,-0.5 2.1,-0.8 3.3,-0.8 1.8,0 3.4,0.8 3.4,2.9 v 3.2 c 0,2 -1.6,2.7 -3.4,2.7 -1.3,0 -2.6,-0.4 -3.5,-0.9 v -2.3 c 0,-1.3 0.6,-2.1 2.2,-2.1 h 1.5 v 1.4 z"
   id="path2184"
   style="fill:#e74011;fill-opacity:1" />

				<path
   class="st17"
   d="m 862.9,901.9 h 1.7 v 5.7 c 0.6,0.6 1.4,1.3 2.2,1.3 0.8,0 1.1,-0.5 1.1,-1.2 V 902 h 1.7 v 5.8 c 0,1.8 -1,2.8 -2.4,2.8 -1.2,0 -1.8,-0.4 -2.6,-1.2 l -0.1,1.1 h -1.6 z"
   id="path2186"
   style="fill:#e74011;fill-opacity:1" />

				<path
   class="st17"
   d="m 874.1,910.3 h -0.5 c -1.4,0 -1.9,-0.5 -1.9,-1.8 v -6.7 h 1.7 v 6.5 c 0,0.2 0.1,0.3 0.3,0.3 h 0.4 z"
   id="path2188"
   style="fill:#e74011;fill-opacity:1" />

				<path
   class="st17"
   d="m 882.8,910.3 h -1.7 v -5.6 c 0,-1 -0.7,-1.4 -1.6,-1.4 -0.6,0 -1.3,0.2 -1.8,0.3 l 0.2,1.3 v 5.4 h -1.7 v -5.6 l -0.4,-1.9 c 1,-0.5 2.3,-1.1 3.7,-1.1 1.7,0 3.3,0.7 3.3,2.9 z"
   id="path2190"
   style="fill:#e74011;fill-opacity:1" />

				<path
   class="st17"
   d="m 889.2,910.3 v -3.4 c -0.4,-0.1 -1,-0.2 -1.6,-0.2 -0.8,0 -1.7,0.2 -1.7,1.1 0,0.8 0.5,1.1 1.1,1.1 0.4,0 0.9,-0.1 1.3,-0.3 v 1.6 c -0.5,0.2 -1,0.3 -1.5,0.3 -1.5,0 -2.6,-0.8 -2.6,-2.7 0,-2 1.5,-2.7 3.2,-2.7 0.6,0 1.2,0.1 1.8,0.2 v -0.7 c 0,-0.9 -0.7,-1.2 -1.6,-1.2 -0.9,0 -2,0.3 -2.6,0.6 l -0.2,-1.6 c 0.8,-0.3 1.9,-0.6 2.8,-0.6 1.8,0 3.3,0.7 3.3,2.8 v 5.8 h -1.7 z"
   id="path2192"
   style="fill:#e74011;fill-opacity:1" />

				<path
   class="st17"
   d="m 890.6,900.1 h -2.9 c -0.9,0 -1.2,-0.4 -1.2,-1.2 v -0.3 h -0.8 l 0.3,-1.5 h 0.9 c 0.8,0 1.2,0.3 1.2,1.2 v 0.4 h 2.8 z"
   id="path2194"
   style="fill:#e74011;fill-opacity:1" />

				<path
   class="st17"
   d="m 895.1,910.3 v -5.7 c 0,-1 -0.7,-1.3 -1.6,-1.3 -0.5,0 -1,0.1 -1.4,0.2 V 902 c 0.5,-0.2 1.1,-0.3 1.6,-0.3 1.5,0 3.1,0.7 3.1,2.8 v 5.8 z"
   id="path2196"
   style="fill:#e74011;fill-opacity:1" />

				<path
   class="st17"
   d="m 904.7,903.9 c -0.6,-0.2 -1.7,-0.5 -2.6,-0.5 -0.9,0 -1.8,0.2 -1.8,0.9 v 0.1 c 2.3,0 4.7,0.8 4.7,3.2 v 0.6 c 0,1.7 -1.4,2.3 -3.1,2.3 -1,0 -2.1,-0.2 -3.2,-0.6 v -3.5 h 1.7 v 2.2 c 0.3,0.1 0.9,0.2 1.5,0.2 0.8,0 1.5,-0.2 1.5,-0.8 v -0.5 c 0,-1.8 -2.6,-1.9 -4.5,-1.9 -0.2,-0.5 -0.3,-0.9 -0.3,-1.3 0,-2 1.7,-2.7 3.4,-2.7 1.1,0 2,0.3 2.8,0.5 z"
   id="path2198"
   style="fill:#e74011;fill-opacity:1" />

				<path
   class="st17"
   d="m 913.4,910.3 h -1.6 l -0.1,-1 c -0.7,0.6 -1.5,1.1 -2.5,1.1 -1.4,0 -2.5,-0.8 -2.5,-2.6 v -6 h 1.7 v 5.9 c 0,0.7 0.3,1.1 0.9,1.1 0.8,0 1.6,-0.4 2.4,-1.1 v -5.9 h 1.7 z"
   id="path2200"
   style="fill:#e74011;fill-opacity:1" />

				<path
   class="st17"
   d="m 922,909.4 c -0.9,0.7 -2.3,1 -3.5,1 -1.8,0 -3.4,-0.8 -3.4,-2.8 v -5.8 h 1.7 v 5.7 c 0,0.9 0.8,1.2 1.7,1.2 0.7,0 1.4,-0.2 1.8,-0.4 v -6.6 h 1.7 z"
   id="path2202"
   style="fill:#e74011;fill-opacity:1" />

				<path
   class="st17"
   d="m 919.9,914.6 v -1.3 c 0,-0.2 -0.1,-0.3 -0.3,-0.3 h -0.5 v -1.6 h 0.7 c 1.3,0 1.8,0.5 1.8,1.7 v 1.5 z"
   id="path2204"
   style="fill:#e74011;fill-opacity:1" />

				<path
   class="st17"
   d="m 924,908.4 c 0.5,0.2 1.6,0.4 2.6,0.4 0.8,0 1.5,-0.2 1.5,-1 0,-1.4 -4.3,-1.1 -4.3,-3.8 0,-1.7 1.4,-2.3 3.1,-2.3 1,0 2,0.2 2.7,0.4 l -0.2,1.5 c -0.5,-0.1 -1.5,-0.4 -2.5,-0.4 -0.7,0 -1.4,0.2 -1.4,0.7 0,1.4 4.3,1 4.3,3.8 0,1.9 -1.4,2.6 -3.2,2.6 -1,0 -2,-0.2 -2.8,-0.4 z"
   id="path2206"
   style="fill:#e74011;fill-opacity:1" />

				<polygon
   class="st17"
   points="929.8,900.1 923.6,900.1 924,898.6 928.1,898.6 928.2,897.6 929.8,897.6 "
   id="polygon2208"
   style="fill:#e74011;fill-opacity:1" />

			</g>

			<g
   id="g2308"
   style="fill:#e74011;fill-opacity:1">
				<g
   id="g2238"
   style="fill:#e74011;fill-opacity:1">
					<path
   class="st17"
   d="m 700.6,924.2 h -1.3 l -2.1,-3.1 -0.7,0.5 v 2.5 h -1.1 v -6.8 h 1.1 v 3.2 c 0.3,-0.4 0.6,-0.7 0.9,-1.1 l 1.8,-2.2 h 1.3 c -1.2,1.4 -2,2.4 -2.5,3 z"
   id="path2212"
   style="fill:#e74011;fill-opacity:1" />

					<path
   class="st17"
   d="m 701.4,917.7 c 0,-0.2 0.1,-0.3 0.2,-0.4 0.1,-0.1 0.3,-0.2 0.5,-0.2 0.2,0 0.3,0.1 0.4,0.2 0.1,0.1 0.2,0.3 0.2,0.4 0,0.2 -0.1,0.3 -0.2,0.4 -0.1,0.1 -0.3,0.2 -0.4,0.2 -0.2,0 -0.3,-0.1 -0.5,-0.2 -0.2,-0.1 -0.2,-0.2 -0.2,-0.4 z m 1.1,6.5 h -1.1 v -5.1 h 1.1 z"
   id="path2214"
   style="fill:#e74011;fill-opacity:1" />

					<path
   class="st17"
   d="m 708.7,924.2 h -1.1 V 921 c 0,-0.4 -0.1,-0.7 -0.2,-0.9 -0.2,-0.2 -0.4,-0.3 -0.8,-0.3 -0.5,0 -0.8,0.1 -1,0.4 -0.2,0.3 -0.3,0.7 -0.3,1.4 v 2.5 h -1.1 V 919 h 0.9 l 0.2,0.7 h 0.1 c 0.2,-0.2 0.4,-0.4 0.7,-0.6 0.3,-0.1 0.6,-0.2 0.9,-0.2 1.2,0 1.8,0.6 1.8,1.9 v 3.4 z"
   id="path2216"
   style="fill:#e74011;fill-opacity:1" />

					<path
   class="st17"
   d="m 714.6,919.1 v 0.6 l -0.9,0.2 c 0.1,0.1 0.1,0.2 0.2,0.4 0.1,0.2 0.1,0.3 0.1,0.5 0,0.5 -0.2,0.9 -0.5,1.2 -0.4,0.3 -0.9,0.5 -1.5,0.5 -0.2,0 -0.3,0 -0.4,0 -0.2,0.1 -0.4,0.3 -0.4,0.5 0,0.1 0.1,0.2 0.2,0.3 0.1,0.1 0.3,0.1 0.6,0.1 h 0.9 c 0.6,0 1,0.1 1.3,0.4 0.3,0.2 0.4,0.6 0.4,1 0,0.6 -0.2,1 -0.7,1.3 -0.5,0.3 -1.2,0.5 -2.1,0.5 -0.7,0 -1.2,-0.1 -1.6,-0.4 -0.4,-0.2 -0.5,-0.6 -0.5,-1.1 0,-0.3 0.1,-0.6 0.3,-0.8 0.2,-0.2 0.5,-0.4 0.8,-0.4 -0.1,-0.1 -0.3,-0.2 -0.4,-0.3 -0.1,-0.1 -0.1,-0.3 -0.1,-0.4 0,-0.2 0.1,-0.4 0.2,-0.5 0.1,-0.1 0.3,-0.3 0.5,-0.4 -0.3,-0.1 -0.5,-0.3 -0.6,-0.6 -0.2,-0.3 -0.2,-0.6 -0.2,-0.9 0,-0.6 0.2,-1 0.5,-1.3 0.3,-0.3 0.8,-0.5 1.5,-0.5 0.1,0 0.3,0 0.5,0 0.2,0 0.3,0 0.4,0.1 z m -4,5.9 c 0,0.2 0.1,0.4 0.3,0.5 0.2,0.1 0.5,0.2 0.9,0.2 0.6,0 1,-0.1 1.3,-0.3 0.3,-0.2 0.4,-0.4 0.4,-0.7 0,-0.2 -0.1,-0.4 -0.2,-0.5 -0.2,-0.1 -0.5,-0.1 -0.9,-0.1 h -0.8 c -0.3,0 -0.6,0.1 -0.7,0.2 -0.2,0.2 -0.3,0.4 -0.3,0.7 z m 0.4,-4.3 c 0,0.3 0.1,0.6 0.2,0.7 0.2,0.2 0.4,0.3 0.7,0.3 0.6,0 0.9,-0.3 0.9,-1 0,-0.3 -0.1,-0.6 -0.2,-0.8 -0.2,-0.2 -0.4,-0.3 -0.7,-0.3 -0.3,0 -0.6,0.1 -0.7,0.3 -0.1,0.2 -0.2,0.5 -0.2,0.8 z"
   id="path2218"
   style="fill:#e74011;fill-opacity:1" />

					<path
   class="st17"
   d="m 721.2,924.2 -2,-5.6 v 0 c 0.1,0.8 0.1,1.6 0.1,2.4 v 3.3 h -1 v -6.8 h 1.6 l 1.9,5.4 v 0 l 1.9,-5.4 h 1.6 v 6.8 h -1.1 V 921 c 0,-0.3 0,-0.8 0,-1.3 0,-0.5 0,-0.9 0,-1 v 0 l -2,5.6 h -1 z"
   id="path2220"
   style="fill:#e74011;fill-opacity:1" />

					<path
   class="st17"
   d="m 731.4,921.6 c 0,0.8 -0.2,1.5 -0.6,2 -0.4,0.5 -1,0.7 -1.8,0.7 -0.5,0 -0.9,-0.1 -1.3,-0.3 -0.4,-0.2 -0.6,-0.5 -0.8,-0.9 -0.2,-0.4 -0.3,-0.9 -0.3,-1.4 0,-0.8 0.2,-1.5 0.6,-1.9 0.4,-0.5 1,-0.7 1.8,-0.7 0.7,0 1.3,0.2 1.8,0.7 0.4,0.4 0.6,1 0.6,1.8 z m -3.7,0 c 0,1.2 0.4,1.8 1.3,1.8 0.9,0 1.3,-0.6 1.3,-1.8 0,-1.2 -0.4,-1.8 -1.3,-1.8 -0.5,0 -0.8,0.1 -1,0.5 -0.2,0.3 -0.3,0.7 -0.3,1.3 z"
   id="path2222"
   style="fill:#e74011;fill-opacity:1" />

					<path
   class="st17"
   d="M 737.1,924.2 H 736 V 921 c 0,-0.4 -0.1,-0.7 -0.2,-0.9 -0.2,-0.2 -0.4,-0.3 -0.8,-0.3 -0.5,0 -0.8,0.1 -1,0.4 -0.2,0.3 -0.3,0.7 -0.3,1.4 v 2.5 h -1.1 V 919 h 0.9 l 0.2,0.7 h 0.1 c 0.2,-0.2 0.4,-0.4 0.7,-0.6 0.3,-0.1 0.6,-0.2 0.9,-0.2 1.2,0 1.8,0.6 1.8,1.9 v 3.4 z"
   id="path2224"
   style="fill:#e74011;fill-opacity:1" />

					<path
   class="st17"
   d="m 743.1,919.1 v 0.6 l -0.9,0.2 c 0.1,0.1 0.1,0.2 0.2,0.4 0.1,0.2 0.1,0.3 0.1,0.5 0,0.5 -0.2,0.9 -0.5,1.2 -0.4,0.3 -0.9,0.5 -1.5,0.5 -0.2,0 -0.3,0 -0.4,0 -0.2,0.1 -0.4,0.3 -0.4,0.5 0,0.1 0.1,0.2 0.2,0.3 0.1,0.1 0.3,0.1 0.6,0.1 h 0.9 c 0.6,0 1,0.1 1.3,0.4 0.3,0.2 0.4,0.6 0.4,1 0,0.6 -0.2,1 -0.7,1.3 -0.5,0.3 -1.2,0.5 -2.1,0.5 -0.7,0 -1.2,-0.1 -1.6,-0.4 -0.4,-0.2 -0.5,-0.6 -0.5,-1.1 0,-0.3 0.1,-0.6 0.3,-0.8 0.2,-0.2 0.5,-0.4 0.8,-0.4 -0.1,-0.1 -0.3,-0.2 -0.4,-0.3 -0.1,-0.1 -0.1,-0.3 -0.1,-0.4 0,-0.2 0.1,-0.4 0.2,-0.5 0.1,-0.1 0.3,-0.3 0.5,-0.4 -0.3,-0.1 -0.5,-0.3 -0.6,-0.6 -0.2,-0.3 -0.2,-0.6 -0.2,-0.9 0,-0.6 0.2,-1 0.5,-1.3 0.4,-0.3 0.8,-0.5 1.5,-0.5 0.1,0 0.3,0 0.5,0 0.2,0 0.3,0 0.4,0.1 z m -4,5.9 c 0,0.2 0.1,0.4 0.3,0.5 0.2,0.1 0.5,0.2 0.9,0.2 0.6,0 1,-0.1 1.3,-0.3 0.3,-0.2 0.4,-0.4 0.4,-0.7 0,-0.2 -0.1,-0.4 -0.2,-0.5 -0.2,-0.1 -0.5,-0.1 -0.9,-0.1 h -0.8 c -0.3,0 -0.6,0.1 -0.7,0.2 -0.2,0.2 -0.3,0.4 -0.3,0.7 z m 0.5,-4.3 c 0,0.3 0.1,0.6 0.2,0.7 0.2,0.2 0.4,0.3 0.7,0.3 0.6,0 0.9,-0.3 0.9,-1 0,-0.3 -0.1,-0.6 -0.2,-0.8 -0.2,-0.2 -0.4,-0.3 -0.7,-0.3 -0.3,0 -0.6,0.1 -0.7,0.3 -0.2,0.2 -0.2,0.5 -0.2,0.8 z"
   id="path2226"
   style="fill:#e74011;fill-opacity:1" />

					<path
   class="st17"
   d="m 745.5,921.5 0.6,-0.8 1.5,-1.6 h 1.3 l -2.1,2.2 2.2,2.9 h -1.3 l -1.6,-2.2 -0.6,0.5 v 1.8 h -1.1 v -6.8 h 1.1 v 3.1 z"
   id="path2228"
   style="fill:#e74011;fill-opacity:1" />

					<path
   class="st17"
   d="m 753.5,924.2 -0.2,-0.7 h -0.1 c -0.2,0.2 -0.4,0.4 -0.6,0.6 -0.3,0.1 -0.6,0.2 -1,0.2 -0.6,0 -1.1,-0.2 -1.4,-0.5 -0.3,-0.3 -0.5,-0.8 -0.5,-1.4 v -3.3 h 1.1 v 3.1 c 0,0.4 0.1,0.7 0.2,0.9 0.2,0.2 0.4,0.3 0.8,0.3 0.5,0 0.8,-0.1 1,-0.4 0.2,-0.3 0.3,-0.7 0.3,-1.4 v -2.5 h 1.1 v 5.1 z"
   id="path2230"
   style="fill:#e74011;fill-opacity:1" />

					<path
   class="st17"
   d="m 758.1,923.4 c 0.3,0 0.5,0 0.8,-0.1 v 0.8 c -0.1,0.1 -0.3,0.1 -0.5,0.1 -0.2,0 -0.4,0.1 -0.6,0.1 -1,0 -1.5,-0.5 -1.5,-1.6 v -2.8 h -0.7 v -0.5 l 0.7,-0.4 0.4,-1.1 h 0.7 v 1.1 h 1.5 v 0.8 h -1.5 v 2.7 c 0,0.3 0.1,0.5 0.2,0.6 0.1,0.2 0.3,0.3 0.5,0.3 z"
   id="path2232"
   style="fill:#e74011;fill-opacity:1" />

					<path
   class="st17"
   d="m 760.8,917.4 0.1,0.1 c -0.2,0.6 -0.4,1.4 -0.8,2.2 h -0.8 c 0.2,-0.9 0.4,-1.7 0.5,-2.3 z"
   id="path2234"
   style="fill:#e74011;fill-opacity:1" />

					<path
   class="st17"
   d="m 765.3,922.7 c 0,0.5 -0.2,0.9 -0.5,1.1 -0.4,0.3 -0.9,0.4 -1.6,0.4 -0.7,0 -1.2,-0.1 -1.6,-0.3 V 923 c 0.6,0.3 1.2,0.4 1.7,0.4 0.7,0 1,-0.2 1,-0.6 0,-0.1 0,-0.2 -0.1,-0.3 -0.1,-0.1 -0.2,-0.2 -0.4,-0.3 -0.2,-0.1 -0.4,-0.2 -0.7,-0.3 -0.6,-0.2 -1,-0.5 -1.2,-0.7 -0.2,-0.2 -0.3,-0.5 -0.3,-0.9 0,-0.4 0.2,-0.8 0.5,-1 0.4,-0.2 0.8,-0.4 1.4,-0.4 0.6,0 1.2,0.1 1.7,0.4 l -0.4,0.8 c -0.6,-0.2 -1,-0.3 -1.4,-0.3 -0.6,0 -0.9,0.2 -0.9,0.5 0,0.2 0.1,0.3 0.2,0.4 0.2,0.1 0.5,0.3 1,0.5 0.4,0.2 0.7,0.3 0.9,0.4 0.2,0.1 0.3,0.3 0.4,0.5 0.3,0.1 0.3,0.4 0.3,0.6 z"
   id="path2236"
   style="fill:#e74011;fill-opacity:1" />

				</g>

				<g
   id="g2264"
   style="fill:#e74011;fill-opacity:1">
					<path
   class="st17"
   d="m 774.4,917.6 v 4.4 c 0,0.5 -0.1,0.9 -0.3,1.3 -0.2,0.4 -0.5,0.7 -0.9,0.9 -0.4,0.2 -0.9,0.3 -1.5,0.3 -0.8,0 -1.5,-0.2 -2,-0.7 -0.5,-0.4 -0.7,-1.1 -0.7,-1.8 v -4.3 h 1.1 v 4.3 c 0,0.6 0.1,1 0.4,1.2 0.3,0.3 0.7,0.4 1.2,0.4 1,0 1.6,-0.5 1.6,-1.6 v -4.3 h 1.1 z"
   id="path2240"
   style="fill:#e74011;fill-opacity:1" />

					<path
   class="st17"
   d="m 780.6,924.3 h -1.1 v -3.1 c 0,-0.4 -0.1,-0.7 -0.2,-0.9 -0.2,-0.2 -0.4,-0.3 -0.8,-0.3 -0.5,0 -0.8,0.1 -1,0.4 -0.2,0.3 -0.3,0.7 -0.3,1.4 v 2.5 h -1.1 v -5.1 h 0.8 l 0.2,0.7 h 0.1 c 0.2,-0.2 0.4,-0.4 0.7,-0.6 0.3,-0.1 0.6,-0.2 0.9,-0.2 1.2,0 1.8,0.6 1.8,1.9 z"
   id="path2242"
   style="fill:#e74011;fill-opacity:1" />

					<path
   class="st17"
   d="m 782.1,917.9 c 0,-0.2 0.1,-0.3 0.2,-0.4 0.1,-0.1 0.3,-0.2 0.5,-0.2 0.2,0 0.3,0.1 0.4,0.2 0.1,0.1 0.2,0.3 0.2,0.4 0,0.2 -0.1,0.3 -0.2,0.4 -0.1,0.1 -0.3,0.2 -0.4,0.2 -0.2,0 -0.3,-0.1 -0.5,-0.2 -0.1,-0.1 -0.2,-0.2 -0.2,-0.4 z m 1.2,6.4 h -1.1 v -5.1 h 1.1 z"
   id="path2244"
   style="fill:#e74011;fill-opacity:1" />

					<path
   class="st17"
   d="m 786.1,924.3 -1.9,-5.1 h 1.1 l 1,3 c 0.2,0.5 0.3,0.9 0.3,1.2 v 0 c 0,-0.2 0.1,-0.6 0.3,-1.2 l 1,-3 h 1.2 l -1.9,5.1 z"
   id="path2246"
   style="fill:#e74011;fill-opacity:1" />

					<path
   class="st17"
   d="m 792.3,924.4 c -0.8,0 -1.4,-0.2 -1.9,-0.7 -0.5,-0.5 -0.7,-1.1 -0.7,-1.9 0,-0.8 0.2,-1.5 0.6,-2 0.4,-0.5 1,-0.7 1.7,-0.7 0.7,0 1.2,0.2 1.6,0.6 0.4,0.4 0.6,1 0.6,1.7 v 0.6 h -3.4 c 0,0.5 0.1,0.9 0.4,1.1 0.3,0.3 0.6,0.4 1.1,0.4 0.3,0 0.6,0 0.8,-0.1 0.3,-0.1 0.5,-0.2 0.8,-0.3 v 0.9 c -0.3,0.1 -0.5,0.2 -0.8,0.3 -0.1,0.1 -0.4,0.1 -0.8,0.1 z m -0.2,-4.4 c -0.3,0 -0.6,0.1 -0.8,0.3 -0.2,0.2 -0.3,0.5 -0.4,1 h 2.3 c 0,-0.4 -0.1,-0.7 -0.3,-1 -0.2,-0.2 -0.4,-0.3 -0.8,-0.3 z"
   id="path2248"
   style="fill:#e74011;fill-opacity:1" />

					<path
   class="st17"
   d="m 798.2,919.1 c 0.2,0 0.4,0 0.5,0 l -0.1,1 c -0.2,0 -0.3,-0.1 -0.5,-0.1 -0.4,0 -0.8,0.1 -1.1,0.4 -0.3,0.3 -0.4,0.7 -0.4,1.1 v 2.7 h -1.1 v -5.1 h 0.9 l 0.1,0.9 h 0.1 c 0.2,-0.3 0.4,-0.5 0.7,-0.7 0.3,-0.1 0.6,-0.2 0.9,-0.2 z"
   id="path2250"
   style="fill:#e74011;fill-opacity:1" />

					<path
   class="st17"
   d="m 803.2,922.9 c 0,0.5 -0.2,0.9 -0.5,1.1 -0.4,0.3 -0.9,0.4 -1.6,0.4 -0.7,0 -1.2,-0.1 -1.6,-0.3 v -0.9 c 0.6,0.3 1.2,0.4 1.7,0.4 0.7,0 1,-0.2 1,-0.6 0,-0.1 0,-0.2 -0.1,-0.3 -0.1,-0.1 -0.2,-0.2 -0.4,-0.3 -0.2,-0.1 -0.4,-0.2 -0.7,-0.3 -0.6,-0.2 -1,-0.5 -1.2,-0.7 -0.2,-0.2 -0.3,-0.5 -0.3,-0.9 0,-0.4 0.2,-0.8 0.5,-1 0.4,-0.2 0.8,-0.4 1.4,-0.4 0.6,0 1.2,0.1 1.7,0.4 l -0.4,0.8 c -0.6,-0.2 -1,-0.3 -1.4,-0.3 -0.6,0 -0.9,0.2 -0.9,0.5 0,0.2 0.1,0.3 0.2,0.4 0.1,0.1 0.5,0.3 1,0.5 0.4,0.2 0.7,0.3 0.9,0.4 0.2,0.1 0.3,0.3 0.4,0.5 0.3,0.1 0.3,0.3 0.3,0.6 z"
   id="path2252"
   style="fill:#e74011;fill-opacity:1" />

					<path
   class="st17"
   d="m 804.4,917.9 c 0,-0.2 0.1,-0.3 0.2,-0.4 0.1,-0.1 0.3,-0.2 0.5,-0.2 0.2,0 0.3,0.1 0.4,0.2 0.1,0.1 0.2,0.3 0.2,0.4 0,0.2 -0.1,0.3 -0.2,0.4 -0.1,0.1 -0.3,0.2 -0.4,0.2 -0.2,0 -0.3,-0.1 -0.5,-0.2 -0.1,-0.1 -0.2,-0.2 -0.2,-0.4 z m 1.2,6.4 h -1.1 v -5.1 h 1.1 z"
   id="path2254"
   style="fill:#e74011;fill-opacity:1" />

					<path
   class="st17"
   d="m 809.1,923.5 c 0.3,0 0.5,0 0.8,-0.1 v 0.8 c -0.1,0.1 -0.3,0.1 -0.5,0.1 -0.2,0 -0.4,0.1 -0.6,0.1 -1,0 -1.5,-0.5 -1.5,-1.6 V 920 h -0.7 v -0.5 l 0.7,-0.4 0.4,-1.1 h 0.7 v 1.1 h 1.5 v 0.8 h -1.5 v 2.7 c 0,0.3 0.1,0.5 0.2,0.6 0.2,0.3 0.3,0.3 0.5,0.3 z"
   id="path2256"
   style="fill:#e74011;fill-opacity:1" />

					<path
   class="st17"
   d="m 810.3,919.2 h 1.2 l 1,2.9 c 0.2,0.4 0.3,0.8 0.3,1.2 v 0 c 0,-0.2 0.1,-0.4 0.2,-0.6 0.1,-0.2 0.5,-1.4 1.2,-3.4 h 1.2 l -2.2,5.8 c -0.4,1.1 -1.1,1.6 -2,1.6 -0.2,0 -0.5,0 -0.7,-0.1 v -0.9 c 0.2,0 0.3,0.1 0.6,0.1 0.5,0 0.9,-0.3 1.1,-0.9 l 0.2,-0.5 z"
   id="path2258"
   style="fill:#e74011;fill-opacity:1" />

					<path
   class="st17"
   d="m 823.3,921.8 c 0,0.8 -0.2,1.5 -0.6,2 -0.4,0.5 -1,0.7 -1.8,0.7 -0.5,0 -0.9,-0.1 -1.3,-0.3 -0.4,-0.2 -0.6,-0.5 -0.8,-0.9 -0.2,-0.4 -0.3,-0.9 -0.3,-1.4 0,-0.8 0.2,-1.5 0.6,-1.9 0.4,-0.5 1,-0.7 1.8,-0.7 0.7,0 1.3,0.2 1.8,0.7 0.4,0.3 0.6,1 0.6,1.8 z m -3.7,0 c 0,1.2 0.4,1.8 1.3,1.8 0.9,0 1.3,-0.6 1.3,-1.8 0,-1.2 -0.4,-1.8 -1.3,-1.8 -0.5,0 -0.8,0.2 -1,0.5 -0.2,0.3 -0.3,0.7 -0.3,1.3 z"
   id="path2260"
   style="fill:#e74011;fill-opacity:1" />

					<path
   class="st17"
   d="M 827.2,920 H 826 v 4.3 h -1.1 V 920 H 824 v -0.5 l 0.8,-0.3 v -0.3 c 0,-0.6 0.1,-1.1 0.4,-1.3 0.3,-0.3 0.7,-0.4 1.3,-0.4 0.4,0 0.8,0.1 1.1,0.2 l -0.3,0.8 c -0.3,-0.1 -0.5,-0.1 -0.8,-0.1 -0.2,0 -0.4,0.1 -0.5,0.2 -0.1,0.2 -0.2,0.4 -0.2,0.7 v 0.3 h 1.2 v 0.7 z"
   id="path2262"
   style="fill:#e74011;fill-opacity:1" />

				</g>

				<g
   id="g2306"
   style="fill:#e74011;fill-opacity:1">
					<g
   id="g2286"
   style="fill:#e74011;fill-opacity:1">
						<path
   class="st17"
   d="m 834.4,923.8 h -1.1 V 918 h -2 v -0.9 h 5.1 v 0.9 h -2 z"
   id="path2266"
   style="fill:#e74011;fill-opacity:1" />

						<path
   class="st17"
   d="m 839.3,923.9 c -0.8,0 -1.4,-0.2 -1.9,-0.7 -0.4,-0.5 -0.7,-1.1 -0.7,-1.9 0,-0.8 0.2,-1.5 0.6,-2 0.4,-0.5 1,-0.7 1.7,-0.7 0.7,0 1.2,0.2 1.6,0.6 0.4,0.4 0.6,1 0.6,1.7 v 0.6 h -3.4 c 0,0.5 0.1,0.9 0.4,1.1 0.3,0.3 0.6,0.4 1.1,0.4 0.3,0 0.6,0 0.8,-0.1 0.3,-0.1 0.5,-0.2 0.8,-0.3 v 0.9 c -0.3,0.1 -0.5,0.2 -0.8,0.3 -0.1,0.1 -0.4,0.1 -0.8,0.1 z m -0.2,-4.4 c -0.3,0 -0.6,0.1 -0.8,0.3 -0.2,0.2 -0.3,0.5 -0.4,1 h 2.3 c 0,-0.4 -0.1,-0.7 -0.3,-1 -0.1,-0.2 -0.4,-0.3 -0.8,-0.3 z"
   id="path2268"
   style="fill:#e74011;fill-opacity:1" />

						<path
   class="st17"
   d="m 844.7,923.9 c -0.8,0 -1.4,-0.2 -1.8,-0.7 -0.4,-0.4 -0.6,-1.1 -0.6,-1.9 0,-0.9 0.2,-1.5 0.6,-2 0.4,-0.5 1,-0.7 1.8,-0.7 0.5,0 1,0.1 1.5,0.3 l -0.3,0.9 c -0.5,-0.2 -0.8,-0.3 -1.1,-0.3 -0.9,0 -1.3,0.6 -1.3,1.8 0,0.6 0.1,1 0.3,1.3 0.2,0.3 0.5,0.4 1,0.4 0.5,0 0.9,-0.1 1.4,-0.4 v 0.9 c -0.2,0.1 -0.4,0.2 -0.6,0.2 -0.3,0.2 -0.6,0.2 -0.9,0.2 z"
   id="path2270"
   style="fill:#e74011;fill-opacity:1" />

						<path
   class="st17"
   d="m 851.9,923.8 h -1.1 v -3.1 c 0,-0.4 -0.1,-0.7 -0.2,-0.9 -0.2,-0.2 -0.4,-0.3 -0.8,-0.3 -0.5,0 -0.8,0.1 -1,0.4 -0.2,0.3 -0.3,0.7 -0.3,1.4 v 2.5 h -1.1 v -6.7 h 1.1 v 1.4 c 0,0.3 0,0.6 -0.1,0.9 h 0.1 c 0.1,-0.2 0.4,-0.4 0.6,-0.6 0.3,-0.1 0.6,-0.2 0.9,-0.2 1.2,0 1.9,0.6 1.9,1.9 z"
   id="path2272"
   style="fill:#e74011;fill-opacity:1" />

						<path
   class="st17"
   d="m 858,923.8 h -1.1 v -3.1 c 0,-0.4 -0.1,-0.7 -0.2,-0.9 -0.2,-0.2 -0.4,-0.3 -0.8,-0.3 -0.5,0 -0.8,0.1 -1,0.4 -0.2,0.3 -0.3,0.7 -0.3,1.4 v 2.5 h -1.1 v -5.1 h 0.8 l 0.2,0.7 h 0.1 c 0.2,-0.2 0.4,-0.4 0.7,-0.6 0.3,-0.1 0.6,-0.2 0.9,-0.2 1.2,0 1.8,0.6 1.8,1.9 z"
   id="path2274"
   style="fill:#e74011;fill-opacity:1" />

						<path
   class="st17"
   d="m 864.1,921.3 c 0,0.8 -0.2,1.5 -0.6,1.9 -0.4,0.5 -1,0.7 -1.8,0.7 -0.5,0 -0.9,-0.1 -1.3,-0.3 -0.4,-0.2 -0.6,-0.5 -0.8,-0.9 -0.2,-0.4 -0.3,-0.9 -0.3,-1.4 0,-0.8 0.2,-1.5 0.6,-1.9 0.4,-0.5 1,-0.7 1.8,-0.7 0.7,0 1.3,0.2 1.8,0.7 0.4,0.4 0.6,1.1 0.6,1.9 z m -3.7,0 c 0,1.2 0.4,1.8 1.3,1.8 0.9,0 1.3,-0.6 1.3,-1.8 0,-1.2 -0.4,-1.7 -1.3,-1.7 -0.5,0 -0.8,0.2 -1,0.5 -0.2,0.2 -0.3,0.6 -0.3,1.2 z"
   id="path2276"
   style="fill:#e74011;fill-opacity:1" />

						<path
   class="st17"
   d="m 866.5,923.8 h -1.1 v -6.7 h 1.1 z"
   id="path2278"
   style="fill:#e74011;fill-opacity:1" />

						<path
   class="st17"
   d="m 872.7,921.3 c 0,0.8 -0.2,1.5 -0.6,1.9 -0.4,0.5 -1,0.7 -1.8,0.7 -0.5,0 -0.9,-0.1 -1.3,-0.3 -0.4,-0.2 -0.6,-0.5 -0.8,-0.9 -0.2,-0.4 -0.3,-0.9 -0.3,-1.4 0,-0.8 0.2,-1.5 0.6,-1.9 0.4,-0.5 1,-0.7 1.8,-0.7 0.7,0 1.3,0.2 1.8,0.7 0.4,0.4 0.6,1.1 0.6,1.9 z m -3.7,0 c 0,1.2 0.4,1.8 1.3,1.8 0.9,0 1.3,-0.6 1.3,-1.8 0,-1.2 -0.4,-1.7 -1.3,-1.7 -0.5,0 -0.8,0.2 -1,0.5 -0.2,0.2 -0.3,0.6 -0.3,1.2 z"
   id="path2280"
   style="fill:#e74011;fill-opacity:1" />

						<path
   class="st17"
   d="m 878.3,918.7 v 0.6 l -0.9,0.2 c 0.1,0.1 0.1,0.2 0.2,0.4 0.1,0.2 0.1,0.3 0.1,0.5 0,0.5 -0.2,0.9 -0.5,1.2 -0.4,0.3 -0.9,0.5 -1.5,0.5 -0.2,0 -0.3,0 -0.4,0 -0.2,0.1 -0.3,0.3 -0.3,0.5 0,0.1 0.1,0.2 0.2,0.3 0.1,0.1 0.3,0.1 0.6,0.1 h 0.9 c 0.6,0 1,0.1 1.3,0.4 0.3,0.2 0.4,0.6 0.4,1 0,0.6 -0.2,1 -0.7,1.3 -0.5,0.3 -1.2,0.5 -2.1,0.5 -0.7,0 -1.2,-0.1 -1.6,-0.4 -0.4,-0.2 -0.5,-0.6 -0.5,-1 0,-0.3 0.1,-0.6 0.3,-0.8 0.2,-0.2 0.5,-0.4 0.8,-0.4 -0.1,-0.1 -0.3,-0.2 -0.4,-0.3 -0.1,-0.1 -0.1,-0.3 -0.1,-0.4 0,-0.2 0.1,-0.4 0.2,-0.5 0.1,-0.1 0.3,-0.3 0.5,-0.4 -0.3,-0.1 -0.5,-0.3 -0.6,-0.6 -0.2,-0.3 -0.2,-0.6 -0.2,-0.9 0,-0.6 0.2,-1 0.5,-1.3 0.3,-0.3 0.8,-0.5 1.5,-0.5 0.1,0 0.3,0 0.5,0 0.2,0 0.3,0 0.4,0.1 h 1.4 z m -4,5.9 c 0,0.2 0.1,0.4 0.3,0.5 0.2,0.1 0.5,0.2 0.9,0.2 0.6,0 1,-0.1 1.3,-0.3 0.3,-0.2 0.4,-0.4 0.4,-0.7 0,-0.2 -0.1,-0.4 -0.2,-0.5 -0.2,-0.1 -0.5,-0.1 -0.9,-0.1 h -0.8 c -0.3,0 -0.6,0.1 -0.7,0.2 -0.2,0.3 -0.3,0.5 -0.3,0.7 z m 0.5,-4.2 c 0,0.3 0.1,0.6 0.2,0.7 0.2,0.2 0.4,0.3 0.7,0.3 0.6,0 0.9,-0.3 0.9,-1 0,-0.3 -0.1,-0.6 -0.2,-0.8 -0.2,-0.2 -0.4,-0.3 -0.7,-0.3 -0.3,0 -0.6,0.1 -0.7,0.3 -0.1,0.2 -0.2,0.4 -0.2,0.8 z"
   id="path2282"
   style="fill:#e74011;fill-opacity:1" />

						<path
   class="st17"
   d="m 879.4,918.7 h 1.2 l 1,2.9 c 0.2,0.4 0.3,0.8 0.3,1.2 v 0 c 0,-0.2 0.1,-0.4 0.2,-0.6 0.1,-0.2 0.5,-1.4 1.2,-3.4 h 1.2 l -2.2,5.8 c -0.4,1.1 -1.1,1.6 -2,1.6 -0.2,0 -0.5,0 -0.7,-0.1 v -0.9 c 0.2,0 0.3,0.1 0.6,0.1 0.5,0 0.9,-0.3 1.1,-0.9 l 0.2,-0.5 z"
   id="path2284"
   style="fill:#e74011;fill-opacity:1" />

					</g>

					<g
   id="g2304"
   style="fill:#e74011;fill-opacity:1">
						<path
   class="st17"
   d="m 890.7,924.1 h -1.1 v -5.8 h -2 v -0.9 h 5.1 v 0.9 h -2 z"
   id="path2288"
   style="fill:#e74011;fill-opacity:1" />

						<path
   class="st17"
   d="m 898.2,924.1 h -1.1 V 921 c 0,-0.4 -0.1,-0.7 -0.2,-0.9 -0.2,-0.2 -0.4,-0.3 -0.8,-0.3 -0.5,0 -0.8,0.1 -1,0.4 -0.2,0.3 -0.3,0.7 -0.3,1.4 v 2.5 h -1.1 v -6.7 h 1.1 v 1.4 c 0,0.3 0,0.6 -0.1,0.9 h 0.1 c 0.1,-0.2 0.4,-0.4 0.6,-0.6 0.3,-0.1 0.6,-0.2 0.9,-0.2 1.2,0 1.9,0.6 1.9,1.9 z"
   id="path2290"
   style="fill:#e74011;fill-opacity:1" />

						<path
   class="st17"
   d="m 904.3,921.6 c 0,0.8 -0.2,1.5 -0.6,1.9 -0.4,0.5 -1,0.7 -1.8,0.7 -0.5,0 -0.9,-0.1 -1.3,-0.3 -0.4,-0.2 -0.6,-0.5 -0.8,-0.9 -0.2,-0.4 -0.3,-0.9 -0.3,-1.4 0,-0.8 0.2,-1.5 0.6,-1.9 0.4,-0.5 1,-0.7 1.8,-0.7 0.7,0 1.3,0.2 1.8,0.7 0.4,0.4 0.6,1.1 0.6,1.9 z m -3.7,0 c 0,1.2 0.4,1.8 1.3,1.8 0.9,0 1.3,-0.6 1.3,-1.8 0,-1.2 -0.4,-1.7 -1.3,-1.7 -0.5,0 -0.8,0.2 -1,0.5 -0.2,0.2 -0.3,0.6 -0.3,1.2 z"
   id="path2292"
   style="fill:#e74011;fill-opacity:1" />

						<path
   class="st17"
   d="M 910.1,924.1 H 909 V 921 c 0,-0.4 -0.1,-0.7 -0.2,-0.9 -0.2,-0.2 -0.4,-0.3 -0.8,-0.3 -0.5,0 -0.8,0.1 -1,0.4 -0.2,0.3 -0.3,0.7 -0.3,1.4 v 2.5 h -1.1 V 919 h 0.8 l 0.2,0.7 h 0.1 c 0.2,-0.2 0.4,-0.4 0.7,-0.6 0.3,-0.1 0.6,-0.2 0.9,-0.2 1.2,0 1.8,0.6 1.8,1.9 z"
   id="path2294"
   style="fill:#e74011;fill-opacity:1" />

						<path
   class="st17"
   d="m 914.3,919 c 0.6,0 1.1,0.2 1.5,0.7 0.4,0.5 0.5,1.1 0.5,1.9 0,0.8 -0.2,1.5 -0.5,2 -0.4,0.5 -0.9,0.7 -1.5,0.7 -0.6,0 -1.1,-0.2 -1.5,-0.7 h -0.1 l -0.2,0.6 h -0.8 v -6.7 h 1.1 v 1.3 c 0,0.1 0,0.3 0,0.6 0,0.2 0,0.4 0,0.5 v 0 c 0.4,-0.7 0.9,-0.9 1.5,-0.9 z m -0.2,0.8 c -0.4,0 -0.7,0.1 -0.9,0.4 -0.2,0.3 -0.3,0.7 -0.3,1.3 v 0.1 c 0,0.6 0.1,1.1 0.3,1.3 0.2,0.3 0.5,0.4 1,0.4 0.4,0 0.7,-0.2 0.9,-0.5 0.2,-0.3 0.3,-0.7 0.3,-1.3 -0.2,-1.1 -0.5,-1.7 -1.3,-1.7 z"
   id="path2296"
   style="fill:#e74011;fill-opacity:1" />

						<path
   class="st17"
   d="m 921.3,924.1 -0.2,-0.7 H 921 c -0.1,0.2 -0.4,0.4 -0.6,0.6 -0.3,0.1 -0.6,0.2 -0.9,0.2 -0.6,0 -1.1,-0.2 -1.4,-0.5 -0.3,-0.3 -0.5,-0.8 -0.5,-1.4 V 919 h 1.1 v 3.1 c 0,0.4 0.1,0.7 0.2,0.9 0.2,0.2 0.4,0.3 0.8,0.3 0.5,0 0.8,-0.1 1,-0.4 0.2,-0.3 0.3,-0.7 0.3,-1.4 V 919 h 1.1 v 5.1 z"
   id="path2298"
   style="fill:#e74011;fill-opacity:1" />

						<path
   class="st17"
   d="m 926.4,919 c 0.2,0 0.4,0 0.5,0 l -0.1,1 c -0.2,0 -0.3,-0.1 -0.5,-0.1 -0.4,0 -0.8,0.1 -1.1,0.4 -0.3,0.3 -0.4,0.6 -0.4,1.1 v 2.7 h -1.1 V 919 h 0.8 l 0.1,0.9 h 0.1 c 0.2,-0.3 0.4,-0.5 0.7,-0.7 0.4,-0.2 0.7,-0.2 1,-0.2 z"
   id="path2300"
   style="fill:#e74011;fill-opacity:1" />

						<path
   class="st17"
   d="m 927.9,917.7 c 0,-0.2 0.1,-0.3 0.2,-0.4 0.1,-0.1 0.3,-0.2 0.5,-0.2 0.2,0 0.3,0.1 0.4,0.2 0.1,0.1 0.2,0.3 0.2,0.4 0,0.2 -0.1,0.3 -0.2,0.4 -0.1,0.1 -0.3,0.2 -0.4,0.2 -0.2,0 -0.3,-0.1 -0.5,-0.2 -0.2,-0.1 -0.2,-0.2 -0.2,-0.4 z m 1.1,6.4 h -1 V 919 h 1.1 v 5.1 z"
   id="path2302"
   style="fill:#e74011;fill-opacity:1" />

					</g>

				</g>

			</g>

		</g>

		<g
   id="g2350"
   style="fill:#e74011;fill-opacity:1">
			<polyline
   class="st20"
   points="614.6,899.8 618.3,896.7 628,909.3 628.3,909.5 633.8,909.5 632.7,908.4 621.4,894.3 632.4,884.6      633.8,883.4 628.3,883.4 628.1,883.6 614.6,895.4 614.6,883.4 610.2,883.4 610.2,909.5 614.6,909.5 614.6,899.8    "
   id="polyline2312"
   style="fill:#e74011;fill-opacity:1" />

			<path
   class="st20"
   d="m 629.5,925.7 c 0,5.5 -2.1,8.1 -7.5,8.1 -5.4,0 -7.5,-2.6 -7.5,-8.1 v -14.5 h -4.3 V 927 c 0,6.6 4.2,10.7 11.8,10.7 7.6,0 11.8,-4.1 11.8,-10.7 v -12.4 h 7.9 v 23.1 h 4.4 v -23.1 h 7.5 v 23.1 h 4.4 v -23.1 h 6.2 v -3.4 h -34.7 v 14.5"
   id="path2314"
   style="fill:#e74011;fill-opacity:1" />

			<polyline
   class="st20"
   points="658.5,883.8 649.9,904 641.3,883.8 641,883.4 635.5,883.4 635.5,909.5 639.9,909.5 639.9,891      647.8,909.1 648,909.5 651.7,909.5 651.9,909.1 659.8,891 659.8,909.5 664.2,909.5 664.2,883.4 658.7,883.4 658.5,883.8    "
   id="polyline2316"
   style="fill:#e74011;fill-opacity:1" />

			<path
   class="st20"
   d="m 660.6,856.2 c 0,1 -0.8,1.8 -1.8,1.8 -1,0 -1.8,-0.8 -1.8,-1.8 0,-1 0.8,-1.8 1.8,-1.8 1,0 1.8,0.8 1.8,1.8"
   id="path2318"
   style="fill:#e74011;fill-opacity:1" />

			<path
   class="st20"
   d="m 660.6,861.6 c 0,1 -0.8,1.8 -1.8,1.8 -1,0 -1.8,-0.8 -1.8,-1.8 0,-1 0.8,-1.8 1.8,-1.8 1,0 1.8,0.8 1.8,1.8"
   id="path2320"
   style="fill:#e74011;fill-opacity:1" />

			<path
   class="st20"
   d="m 660.6,872.5 c 0,1 -0.8,1.8 -1.8,1.8 -1,0 -1.8,-0.8 -1.8,-1.8 0,-1 0.8,-1.8 1.8,-1.8 1,0 1.8,0.8 1.8,1.8"
   id="path2322"
   style="fill:#e74011;fill-opacity:1" />

			<path
   class="st20"
   d="m 660.6,877.9 c 0,1 -0.8,1.8 -1.8,1.8 -1,0 -1.8,-0.8 -1.8,-1.8 0,-1 0.8,-1.8 1.8,-1.8 1,0 1.8,0.8 1.8,1.8"
   id="path2324"
   style="fill:#e74011;fill-opacity:1" />

			<path
   class="st20"
   d="m 660.6,867.1 c 0,1 -0.8,1.8 -1.8,1.8 -1,0 -1.8,-0.8 -1.8,-1.8 0,-1 0.8,-1.8 1.8,-1.8 1,-0.1 1.8,0.8 1.8,1.8"
   id="path2326"
   style="fill:#e74011;fill-opacity:1" />

			<path
   class="st20"
   d="m 655.2,867.1 c 0,1 -0.8,1.8 -1.8,1.8 -1,0 -1.8,-0.8 -1.8,-1.8 0,-1 0.8,-1.8 1.8,-1.8 1,-0.1 1.8,0.8 1.8,1.8"
   id="path2328"
   style="fill:#e74011;fill-opacity:1" />

			<path
   class="st20"
   d="m 649.8,867.1 c 0,1 -0.8,1.8 -1.8,1.8 -1,0 -1.8,-0.8 -1.8,-1.8 0,-1 0.8,-1.8 1.8,-1.8 1,-0.1 1.8,0.8 1.8,1.8"
   id="path2330"
   style="fill:#e74011;fill-opacity:1" />

			<path
   class="st20"
   d="m 671.4,867.1 c 0,1 -0.8,1.8 -1.8,1.8 -1,0 -1.8,-0.8 -1.8,-1.8 0,-1 0.8,-1.8 1.8,-1.8 1,-0.1 1.8,0.8 1.8,1.8"
   id="path2332"
   style="fill:#e74011;fill-opacity:1" />

			<path
   class="st20"
   d="m 671.4,872.5 c 0,1 -0.8,1.8 -1.8,1.8 -1,0 -1.8,-0.8 -1.8,-1.8 0,-1 0.8,-1.8 1.8,-1.8 1,0 1.8,0.8 1.8,1.8"
   id="path2334"
   style="fill:#e74011;fill-opacity:1" />

			<path
   class="st20"
   d="m 666,867.1 c 0,1 -0.8,1.8 -1.8,1.8 -1,0 -1.8,-0.8 -1.8,-1.8 0,-1 0.8,-1.8 1.8,-1.8 1,-0.1 1.8,0.8 1.8,1.8"
   id="path2336"
   style="fill:#e74011;fill-opacity:1" />

			<path
   class="st20"
   d="m 676.8,877.9 c 0,1 -0.8,1.8 -1.8,1.8 -1,0 -1.8,-0.8 -1.8,-1.8 0,-1 0.8,-1.8 1.8,-1.8 1,0 1.8,0.8 1.8,1.8"
   id="path2338"
   style="fill:#e74011;fill-opacity:1" />

			<path
   class="st20"
   d="m 671.4,877.9 c 0,1 -0.8,1.8 -1.8,1.8 -1,0 -1.8,-0.8 -1.8,-1.8 0,-1 0.8,-1.8 1.8,-1.8 1,0 1.8,0.8 1.8,1.8"
   id="path2340"
   style="fill:#e74011;fill-opacity:1" />

			<path
   class="st20"
   d="m 666,877.9 c 0,1 -0.8,1.8 -1.8,1.8 -1,0 -1.8,-0.8 -1.8,-1.8 0,-1 0.8,-1.8 1.8,-1.8 1,0 1.8,0.8 1.8,1.8"
   id="path2342"
   style="fill:#e74011;fill-opacity:1" />

			<path
   class="st20"
   d="m 682.2,877.9 c 0,1 -0.8,1.8 -1.8,1.8 -1,0 -1.8,-0.8 -1.8,-1.8 0,-1 0.8,-1.8 1.8,-1.8 1,0 1.8,0.8 1.8,1.8"
   id="path2344"
   style="fill:#e74011;fill-opacity:1" />

			<path
   class="st20"
   d="m 671.4,883.4 c 0,1 -0.8,1.8 -1.8,1.8 -1,0 -1.8,-0.8 -1.8,-1.8 0,-1 0.8,-1.8 1.8,-1.8 1,-0.1 1.8,0.8 1.8,1.8"
   id="path2346"
   style="fill:#e74011;fill-opacity:1" />

			<path
   class="st20"
   d="m 671.4,888.8 c 0,1 -0.8,1.8 -1.8,1.8 -1,0 -1.8,-0.8 -1.8,-1.8 0,-1 0.8,-1.8 1.8,-1.8 1,0 1.8,0.8 1.8,1.8"
   id="path2348"
   style="fill:#e74011;fill-opacity:1" />

		</g>

	</g>
  </g>
</svg>
